<svg viewBox="0 0 189 44" fill="none" xmlns="http://www.w3.org/2000/svg">
<path d="M65.504 29.336C70.352 29.336 74.24 25.496 74.24 20.6C74.24 15.68 70.352 11.864 65.504 11.864C60.656 11.864 56.792 15.68 56.792 20.6C56.792 25.496 60.656 29.336 65.504 29.336ZM65.504 26.096C62.456 26.096 60.08 23.816 60.08 20.6C60.08 17.36 62.456 15.08 65.504 15.08C68.552 15.08 70.928 17.36 70.928 20.6C70.928 23.816 68.552 26.096 65.504 26.096ZM82.6158 16.664C81.0078 16.664 79.7598 17.264 79.0398 18.344V12.2H75.9438V29H79.0398V22.52C79.0398 20.432 80.1678 19.544 81.6798 19.544C83.0718 19.544 84.0558 20.384 84.0558 22.016V29H87.1518V21.632C87.1518 18.44 85.1598 16.664 82.6158 16.664ZM105.899 12.2H102.491L97.6914 20.144L92.8674 12.2H89.4594V29H92.7714V18.128L97.4994 25.904H97.8834L102.611 18.104V29H105.899V12.2ZM116.23 17L113.566 25.064L110.446 17H107.062L111.982 28.616C111.406 30.224 110.542 30.944 108.838 30.92V33.8C111.886 33.968 113.926 32.456 115.174 29L119.542 17H116.23ZM137.167 19.976H128.743V22.904H133.831C133.255 24.824 131.575 26.096 128.935 26.096C125.431 26.096 123.199 23.744 123.199 20.624C123.199 17.432 125.503 15.08 128.695 15.08C130.735 15.08 132.439 16.064 133.207 17.408L136.039 15.776C134.623 13.472 131.911 11.864 128.719 11.864C123.703 11.864 119.911 15.752 119.911 20.624C119.911 25.424 123.655 29.336 128.911 29.336C133.735 29.336 137.167 26.12 137.167 21.272V19.976ZM148.019 17V18.416C147.155 17.336 145.859 16.664 144.107 16.664C140.915 16.664 138.275 19.424 138.275 23C138.275 26.576 140.915 29.336 144.107 29.336C145.859 29.336 147.155 28.664 148.019 27.584V29H151.115V17H148.019ZM144.683 26.384C142.787 26.384 141.371 25.016 141.371 23C141.371 20.984 142.787 19.616 144.683 19.616C146.603 19.616 148.019 20.984 148.019 23C148.019 25.016 146.603 26.384 144.683 26.384ZM156.538 19.064V17H153.442V29H156.538V23.264C156.538 20.744 158.578 20.024 160.186 20.216V16.76C158.674 16.76 157.162 17.432 156.538 19.064ZM170.168 12.2V18.416C169.304 17.312 168.032 16.664 166.28 16.664C163.064 16.664 160.424 19.424 160.424 23C160.424 26.576 163.064 29.336 166.28 29.336C168.032 29.336 169.304 28.688 170.168 27.584V29H173.264V12.2H170.168ZM166.856 26.384C164.936 26.384 163.52 25.016 163.52 23C163.52 20.984 164.936 19.616 166.856 19.616C168.752 19.616 170.168 20.984 170.168 23C170.168 25.016 168.752 26.384 166.856 26.384ZM178.231 24.272H187.279C187.351 23.864 187.399 23.456 187.399 23C187.399 19.472 184.879 16.664 181.327 16.664C177.559 16.664 174.991 19.424 174.991 23C174.991 26.576 177.535 29.336 181.567 29.336C183.871 29.336 185.671 28.4 186.799 26.768L184.303 25.328C183.775 26.024 182.815 26.528 181.615 26.528C179.983 26.528 178.663 25.856 178.231 24.272ZM178.183 21.872C178.543 20.336 179.671 19.448 181.327 19.448C182.623 19.448 183.919 20.144 184.303 21.872H178.183Z" fill="#101042"/>
<path fill-rule="evenodd" clip-rule="evenodd" d="M16.7895 3.12232H18.9954V12.2428H22.1V3.12232H28.1867V8.13445C28.1867 8.99666 28.8817 9.69561 29.739 9.69561C30.5963 9.69561 31.2913 8.99666 31.2913 8.13445V2.38282C31.2913 1.06683 30.2306 0 28.922 0H16.0542C14.7456 0 13.6848 1.06683 13.6848 2.38282V19.4622C14.348 18.8084 15.2564 18.4052 16.2584 18.4052H16.7895V3.12232ZM16.7895 20.4594H16.2584C15.497 20.4594 14.8573 20.9831 14.6759 21.6919H15.8499V23.6943C15.9805 23.7281 16.1174 23.746 16.2584 23.746H16.5587C16.7066 23.435 16.7895 23.0867 16.7895 22.719V20.4594ZM12.5819 25.1018H3.10462V27.3203H18.7094V28.2652C18.7094 29.0792 18.971 29.8318 19.4142 30.4426H2.36932C1.06078 30.4426 0 29.3758 0 28.0598V15.7348C0 14.4188 1.06078 13.352 2.36932 13.352H9.31387C10.1712 13.352 10.8662 14.051 10.8662 14.9132C10.8662 15.7754 10.1712 16.4743 9.31387 16.4743H3.10462V21.9795H12.5819V25.1018ZM22.6719 31.9627V40.8777L16.5852 40.8777V35.2493C16.5852 34.3871 15.8902 33.6881 15.0329 33.6881C14.1756 33.6881 13.4806 34.3871 13.4806 35.2493V41.6172C13.4806 42.9332 14.5414 44 15.8499 44L28.7178 44C30.0263 44 31.0871 42.9332 31.0871 41.6172L31.0871 24.7432C30.4239 25.3971 29.5155 25.8002 28.5135 25.8002H27.9825L27.9825 40.8777H25.7765V31.9627H22.6719ZM25.7765 23.746H24.02V28.2652C24.02 28.407 24.0021 28.5447 23.9685 28.676H22.386V29.9085C21.4835 29.9085 20.7519 29.1728 20.7519 28.2652V27.3203H22.6719V16.3511H22.7945V14.3487C23.4992 14.5311 24.02 15.1745 24.02 15.9403V20.4594H25.7765V23.746ZM27.9825 23.746H28.5135C29.2749 23.746 29.9146 23.2223 30.096 22.5136H28.5135V20.4594H28.0175C27.9945 20.5929 27.9825 20.7301 27.9825 20.8702V23.746ZM32.19 18.4874V21.6097L41.6673 21.6097L41.6673 27.5257H35.8666C35.0092 27.5257 34.3143 28.2246 34.3143 29.0868C34.3143 29.949 35.0092 30.648 35.8666 30.648H42.4026C43.7111 30.648 44.7719 29.5812 44.7719 28.2652V15.324C44.7719 14.008 43.7111 12.9412 42.4026 12.9412H24.5368C25.461 13.6128 26.0625 14.7059 26.0625 15.9403V16.0635H41.6673V18.4874H32.19Z" fill="#101042"/>
<path d="M14.6244 22.1027C14.6244 21.1951 15.356 20.4594 16.2584 20.4594H28.5135C29.4159 20.4594 30.1475 21.1951 30.1475 22.1027V22.1027C30.1475 23.0103 29.4159 23.746 28.5135 23.746H16.2584C15.356 23.746 14.6244 23.0103 14.6244 22.1027V22.1027Z" fill="#556CF0"/>
<path d="M22.3859 14.2969C23.2884 14.2969 24.02 15.0327 24.02 15.9403L24.02 28.2652C24.02 29.1728 23.2884 29.9085 22.3859 29.9085V29.9085C21.4835 29.9085 20.7519 29.1728 20.7519 28.2652L20.7519 15.9403C20.7519 15.0327 21.4835 14.2969 22.3859 14.2969V14.2969Z" fill="#556CF0"/>
</svg>
