<svg viewBox="0 0 194 44" fill="none" xmlns="http://www.w3.org/2000/svg">
<path d="M65.9 29.35C70.95 29.35 75 25.35 75 20.25C75 15.125 70.95 11.15 65.9 11.15C60.85 11.15 56.825 15.125 56.825 20.25C56.825 25.35 60.85 29.35 65.9 29.35ZM65.9 25.975C62.725 25.975 60.25 23.6 60.25 20.25C60.25 16.875 62.725 14.5 65.9 14.5C69.075 14.5 71.55 16.875 71.55 20.25C71.55 23.6 69.075 25.975 65.9 25.975ZM83.7248 16.15C82.0498 16.15 80.7498 16.775 79.9998 17.9V11.5H76.7748V29H79.9998V22.25C79.9998 20.075 81.1748 19.15 82.7498 19.15C84.1998 19.15 85.2248 20.025 85.2248 21.725V29H88.4498V21.325C88.4498 18 86.3748 16.15 83.7248 16.15ZM107.979 11.5H104.429L99.4285 19.775L94.4035 11.5H90.8535V29H94.3035V17.675L99.2285 25.775H99.6285L104.554 17.65V29H107.979V11.5ZM118.739 16.5L115.964 24.9L112.714 16.5H109.189L114.314 28.6C113.714 30.275 112.814 31.025 111.039 31V34C114.214 34.175 116.339 32.6 117.639 29L122.189 16.5H118.739ZM140.549 19.6H131.774V22.65H137.074C136.474 24.65 134.724 25.975 131.974 25.975C128.324 25.975 125.999 23.525 125.999 20.275C125.999 16.95 128.399 14.5 131.724 14.5C133.849 14.5 135.624 15.525 136.424 16.925L139.374 15.225C137.899 12.825 135.074 11.15 131.749 11.15C126.524 11.15 122.574 15.2 122.574 20.275C122.574 25.275 126.474 29.35 131.949 29.35C136.974 29.35 140.549 26 140.549 20.95V19.6ZM151.853 16.5V17.975C150.953 16.85 149.603 16.15 147.778 16.15C144.453 16.15 141.703 19.025 141.703 22.75C141.703 26.475 144.453 29.35 147.778 29.35C149.603 29.35 150.953 28.65 151.853 27.525V29H155.078V16.5H151.853ZM148.378 26.275C146.403 26.275 144.928 24.85 144.928 22.75C144.928 20.65 146.403 19.225 148.378 19.225C150.378 19.225 151.853 20.65 151.853 22.75C151.853 24.85 150.378 26.275 148.378 26.275ZM160.727 18.65V16.5H157.502V29H160.727V23.025C160.727 20.4 162.852 19.65 164.527 19.85V16.25C162.952 16.25 161.377 16.95 160.727 18.65ZM174.925 11.5V17.975C174.025 16.825 172.7 16.15 170.875 16.15C167.525 16.15 164.775 19.025 164.775 22.75C164.775 26.475 167.525 29.35 170.875 29.35C172.7 29.35 174.025 28.675 174.925 27.525V29H178.15V11.5H174.925ZM171.475 26.275C169.475 26.275 168 24.85 168 22.75C168 20.65 169.475 19.225 171.475 19.225C173.45 19.225 174.925 20.65 174.925 22.75C174.925 24.85 173.45 26.275 171.475 26.275ZM183.324 24.075H192.749C192.824 23.65 192.874 23.225 192.874 22.75C192.874 19.075 190.249 16.15 186.549 16.15C182.624 16.15 179.949 19.025 179.949 22.75C179.949 26.475 182.599 29.35 186.799 29.35C189.199 29.35 191.074 28.375 192.249 26.675L189.649 25.175C189.099 25.9 188.099 26.425 186.849 26.425C185.149 26.425 183.774 25.725 183.324 24.075ZM183.274 21.575C183.649 19.975 184.824 19.05 186.549 19.05C187.899 19.05 189.249 19.775 189.649 21.575H183.274Z" fill="#101042"/>
<path fill-rule="evenodd" clip-rule="evenodd" d="M16.7895 3.12232H18.9954V12.2428H22.1V3.12232H28.1867V8.13445C28.1867 8.99666 28.8817 9.69561 29.739 9.69561C30.5963 9.69561 31.2913 8.99666 31.2913 8.13445V2.38282C31.2913 1.06683 30.2306 0 28.922 0H16.0542C14.7456 0 13.6848 1.06683 13.6848 2.38282V19.4622C14.348 18.8084 15.2564 18.4052 16.2584 18.4052H16.7895V3.12232ZM16.7895 20.4594H16.2584C15.497 20.4594 14.8573 20.9831 14.6759 21.6919H15.8499V23.6943C15.9805 23.7281 16.1174 23.746 16.2584 23.746H16.5587C16.7066 23.435 16.7895 23.0867 16.7895 22.719V20.4594ZM12.5819 25.1018H3.10462V27.3203H18.7094V28.2652C18.7094 29.0792 18.971 29.8318 19.4142 30.4426H2.36932C1.06078 30.4426 0 29.3758 0 28.0598V15.7348C0 14.4188 1.06078 13.352 2.36932 13.352H9.31387C10.1712 13.352 10.8662 14.051 10.8662 14.9132C10.8662 15.7754 10.1712 16.4743 9.31387 16.4743H3.10462V21.9795H12.5819V25.1018ZM22.6719 31.9627V40.8777L16.5852 40.8777V35.2493C16.5852 34.3871 15.8902 33.6881 15.0329 33.6881C14.1756 33.6881 13.4806 34.3871 13.4806 35.2493V41.6172C13.4806 42.9332 14.5414 44 15.8499 44L28.7178 44C30.0263 44 31.0871 42.9332 31.0871 41.6172L31.0871 24.7432C30.4239 25.3971 29.5155 25.8002 28.5135 25.8002H27.9825L27.9825 40.8777H25.7765V31.9627H22.6719ZM25.7765 23.746H24.02V28.2652C24.02 28.407 24.0021 28.5447 23.9685 28.676H22.386V29.9085C21.4835 29.9085 20.7519 29.1728 20.7519 28.2652V27.3203H22.6719V16.3511H22.7945V14.3487C23.4992 14.5311 24.02 15.1745 24.02 15.9403V20.4594H25.7765V23.746ZM27.9825 23.746H28.5135C29.2749 23.746 29.9146 23.2223 30.096 22.5136H28.5135V20.4594H28.0175C27.9945 20.5929 27.9825 20.7301 27.9825 20.8702V23.746ZM32.19 18.4874V21.6097L41.6673 21.6097L41.6673 27.5257H35.8666C35.0092 27.5257 34.3143 28.2246 34.3143 29.0868C34.3143 29.949 35.0092 30.648 35.8666 30.648H42.4026C43.7111 30.648 44.7719 29.5812 44.7719 28.2652V15.324C44.7719 14.008 43.7111 12.9412 42.4026 12.9412H24.5368C25.461 13.6128 26.0625 14.7059 26.0625 15.9403V16.0635H41.6673V18.4874H32.19Z" fill="#101042"/>
<path d="M14.6244 22.1027C14.6244 21.1951 15.356 20.4594 16.2584 20.4594H28.5135C29.4159 20.4594 30.1475 21.1951 30.1475 22.1027V22.1027C30.1475 23.0103 29.4159 23.746 28.5135 23.746H16.2584C15.356 23.746 14.6244 23.0103 14.6244 22.1027V22.1027Z" fill="#556CF0"/>
<path d="M22.3859 14.2969C23.2884 14.2969 24.02 15.0327 24.02 15.9403L24.02 28.2652C24.02 29.1728 23.2884 29.9085 22.3859 29.9085V29.9085C21.4835 29.9085 20.7519 29.1728 20.7519 28.2652L20.7519 15.9403C20.7519 15.0327 21.4835 14.2969 22.3859 14.2969V14.2969Z" fill="#556CF0"/>
</svg>
